<?xml version="1.0" encoding="utf-8"?>
<!-- Generator: Adobe Illustrator 26.2.1, SVG Export Plug-In . SVG Version: 6.00 Build 0)  -->
<svg version="1.1" id="Layer_1" xmlns="http://www.w3.org/2000/svg" xmlns:xlink="http://www.w3.org/1999/xlink" x="0px" y="0px"
	 viewBox="0 0 1500 1500" style="enable-background:new 0 0 1500 1500;"  xml:space="preserve">
<style type="text/css">
	.st0{fill:#00bfff;

</style>
<g>
	<g>
		<path class="st0" d="M1177.43,451.36c-15.48-38.85-39.54-67.9-71.51-86.36c-31.97-18.46-69.17-24.77-110.55-18.75
			c-37.46,5.44-76.87,20.86-117.11,45.82c-44.83,27.8-88.41,66.04-128.26,112.02c-39.85-45.98-83.43-84.22-128.26-112.02
			c-40.24-24.96-79.64-40.38-117.11-45.82c-41.39-6.02-78.58,0.29-110.55,18.75c-31.97,18.46-56.03,47.51-71.51,86.36
			c-14.01,35.17-20.37,77-18.87,124.33c2.95,93.68,36.41,200.41,94.22,300.54c57.81,100.12,133.51,182.47,213.16,231.86
			c15.44,9.58,30.77,17.75,45.9,24.49c24.3,10.83,48.12,17.97,71.21,21.33c7.41,1.08,14.68,1.76,21.81,2.05
			c7.13-0.29,14.4-0.97,21.81-2.05c23.09-3.36,46.91-10.5,71.21-21.33c15.13-6.74,30.46-14.91,45.9-24.49
			c79.65-49.39,155.35-131.74,213.16-231.86c57.81-100.13,91.27-206.86,94.22-300.54C1197.8,528.36,1191.44,486.53,1177.43,451.36z
			 M449.88,846.23c-104.25-180.57-116.07-377.15-25.8-429.27c15.37-8.87,32.87-13.09,51.87-13.09
			c69.55,0,159.01,56.55,235.89,148.19c-16.56,22.67-32.22,46.71-46.74,71.87c-57.81,100.13-91.27,206.86-94.22,300.54
			c-0.94,29.95,1.25,57.7,6.54,82.95C530.28,964.7,486.39,909.46,449.88,846.23z M814.29,1079.72
			c-22.85,9.76-44.46,15.22-64.29,16.28c-19.83-1.06-41.44-6.51-64.29-16.28c-37.75-25.56-57.19-79.65-54.86-153.36
			c2.64-83.97,33.26-180.71,86.21-272.43c10.42-18.05,21.44-35.38,32.94-51.9c11.49,16.52,22.52,33.85,32.94,51.9
			c52.95,91.72,83.57,188.46,86.21,272.43C871.48,1000.07,852.04,1054.16,814.29,1079.72z M1050.12,846.23
			c-36.51,63.24-80.41,118.48-127.55,161.2c5.3-25.25,7.5-53,6.55-82.96c-2.95-93.68-36.41-200.41-94.22-300.54
			c-14.52-25.16-30.18-49.2-46.75-71.87c76.89-91.65,166.35-148.19,235.9-148.19c18.99,0,36.51,4.22,51.87,13.09
			C1166.19,469.08,1154.37,665.66,1050.12,846.23z"/>
	</g>
</g>
</svg>
